<svg width="6248" height="701" viewBox="0 0 6248 701" fill="none" xmlns="http://www.w3.org/2000/svg">
<path d="M90.5 164H127.5V380.5H153V349.5H183.5V318.5H245.5V288H276.5V257H312.5V293H281.5V324H251V355H189V386H158V411.5H189V442.5H251V473.5H281.5V504H312.5V541H276.5V509.5H245.5V478.5H183.5V447.5H153V417H127.5V541H90.5V164ZM372 478.5H340.5V318.5H372V288H403V257H501V288H531.5V318.5H562.5V417H377.5V473.5H408V504H495.5V473.5H526.5V442.5H562.5V478.5H531.5V509.5H501V541H403V509.5H372V478.5ZM526.5 380.5V324H495.5V293H408V324H377.5V380.5H526.5ZM683 164H719.5V231.5H683V164ZM683 257H719.5V541H683V257ZM840.5 442.5H877.5V504H1026.5V417H872V386H840.5V288H872V257H1031.5V288H1062.5V355H1026.5V293H877.5V380.5H1031.5V411.5H1062.5V509.5H1031.5V541H872V509.5H840.5V442.5ZM1090.5 164H1127.5V288H1153V257H1251V288H1281.5V318.5H1312.5V541H1276.5V324H1245.5V293H1158V324H1127.5V541H1090.5V164ZM1372 478.5H1340.5V318.5H1372V288H1403V257H1501V288H1531.5V318.5H1562.5V478.5H1531.5V509.5H1501V541H1403V509.5H1372V478.5ZM1408 473.5V504H1495.5V473.5H1526.5V324H1495.5V293H1408V324H1377.5V473.5H1408ZM1608 442.5H1675V509.5H1608V442.5ZM1840.5 257H1877.5V288H1903V257H2001V288H2031.5V318.5H2062.5V541H2026.5V324H1995.5V293H1908V324H1877.5V541H1840.5V257ZM2108 442.5H2175V509.5H2108V442.5ZM2372 478.5H2340.5V318.5H2372V288H2403V257H2501V288H2526.5V164H2562.5V541H2526.5V509.5H2501V541H2403V509.5H2372V478.5ZM2408 473.5V504H2495.5V473.5H2526.5V324H2495.5V293H2408V324H2377.5V473.5H2408ZM2622 478.5H2590.5V318.5H2622V288H2653V257H2751V288H2781.5V318.5H2812.5V417H2627.5V473.5H2658V504H2745.5V473.5H2776.5V442.5H2812.5V478.5H2781.5V509.5H2751V541H2653V509.5H2622V478.5ZM2776.5 380.5V324H2745.5V293H2658V324H2627.5V380.5H2776.5ZM2903 417H2872V355H2840.5V257H2877.5V349.5H2908V411.5H2939V473.5H2964.5V411.5H2995.5V349.5H3026.5V257H3062.5V355H3031.5V417H3001V478.5H2970V541H2933.5V478.5H2903V417ZM3158.5 478.5H3127.5V257H3158.5V195H3189V164H3218.5V133.5H3314.5V164H3345V195H3375.5V417H3345V447.5H3310V417H3285V447.5H3218.5V417H3189V262.5H3164V473.5H3193.5V504H3345V541H3189V509.5H3158.5V478.5ZM3218.5 257V226H3285V257H3310V226H3339.5V200.5H3310V169.5H3224V200.5H3193.5V257H3218.5ZM3279.5 411.5V262.5H3224V411.5H3279.5ZM3339.5 411.5V262.5H3314.5V411.5H3339.5ZM3435.5 473.5H3467V447.5H3435.5V411.5H3467V386H3435.5V288H3467V257H3596V288H3621.5V257H3657.5V293H3626.5V386H3596V417H3472.5V442.5H3626.5V473.5H3657.5V541H3626.5V572H3467V541H3435.5V473.5ZM3590.5 380.5V293H3472.5V380.5H3590.5ZM3621.5 535V478.5H3472.5V535H3621.5ZM3685.5 257H3722.5V288H3748V257H3784V288H3840.5V257H3876.5V288H3907.5V541H3871.5V293H3846V324H3815V541H3778.5V293H3753V324H3722.5V541H3685.5V257ZM3935.5 411.5H3967V380.5H4090.5V293H3972.5V355H3935.5V288H3967V257H4096V288H4126.5V504H4157.5V541H4121.5V509.5H4065V541H3967V509.5H3935.5V411.5ZM4059.5 504V473.5H4090.5V417H3972.5V504H4059.5ZM4278 164H4314.5V231.5H4278V164ZM4278 257H4314.5V541H4278V257ZM4528 164H4564.5V541H4528V164ZM4703 442.5H4770V509.5H4703V442.5ZM4967 478.5H4935.5V318.5H4967V288H4998V257H5096V288H5126.5V318.5H5157.5V355H5121.5V324H5090.5V293H5003V324H4972.5V473.5H5003V504H5090.5V473.5H5121.5V442.5H5157.5V478.5H5126.5V509.5H5096V541H4998V509.5H4967V478.5ZM5217 478.5H5185.5V318.5H5217V288H5248V257H5346V288H5376.5V318.5H5407.5V478.5H5376.5V509.5H5346V541H5248V509.5H5217V478.5ZM5253 473.5V504H5340.5V473.5H5371.5V324H5340.5V293H5253V324H5222.5V473.5H5253ZM5435.5 257H5472.5V288H5498V257H5534V288H5590.5V257H5626.5V288H5657.5V541H5621.5V293H5596V324H5565V541H5528.5V293H5503V324H5472.5V541H5435.5V257Z" fill="black"/>
<path d="M5782.35 545.121L6045.12 283.211L6027.12 265.151L6005.16 287.035L5983.63 265.434L5962.03 286.965L5936.26 261.114L5961.76 235.7L5983.64 257.655L6005.6 235.771L6027.48 257.727L6049.44 235.842L6070.97 257.444L6092.57 235.912L6118.34 261.764L6096.74 283.295L6118.62 305.251L6096.66 327.136L6118.55 349.092L6096.59 370.977L6118.12 392.578L6092.63 417.993L6067.21 392.496L6088.81 370.964L6066.93 349.008L6088.89 327.123L6070.88 309.063L5808.12 570.972L5782.35 545.121Z" fill="black"/>
</svg>
